<svg width="193" height="46" viewBox="0 0 193 46" fill="none" xmlns="http://www.w3.org/2000/svg">
<path d="M70.6018 39.4659L63.5416 29.8215L56.4185 39.4659H47.3701L58.409 24.7924L48.0111 10.8857H57.1248L63.5416 19.6418L69.8955 10.8857H79.0092L68.6765 24.7901L79.7154 39.4637H70.6018V39.4659Z" fill="url(#paint0_linear_3_9797)"/>
<path d="M75.6738 25.1462C75.6738 16.3902 82.6058 10.1758 92.104 10.1758C98.4579 10.1758 102.308 12.7196 104.362 15.3241L99.0359 19.9394C97.5605 17.9287 95.3136 16.8626 92.4909 16.8626C87.5494 16.8626 84.0835 20.1756 84.0835 25.1462C84.0835 30.1169 87.5494 33.4884 92.4909 33.4884C95.3158 33.4884 97.5605 32.3054 99.0359 30.3531L104.362 34.9684C102.308 37.5729 98.4579 40.1752 92.104 40.1752C82.6058 40.1752 75.6738 33.963 75.6738 25.1462Z" fill="url(#paint1_linear_3_9797)"/>
<path d="M105.194 25.1453C105.194 16.8031 110.97 10.1748 120.019 10.1748C129.195 10.1748 134.971 16.8009 134.971 25.1453C134.971 33.4874 129.195 40.1742 120.019 40.1742C110.97 40.1742 105.194 33.4897 105.194 25.1453ZM131.379 25.1453C131.379 18.8139 127.335 12.957 120.019 12.957C112.83 12.957 108.723 18.8139 108.723 25.1453C108.723 31.5352 112.83 37.3942 120.019 37.3942C127.335 37.3942 131.379 31.5374 131.379 25.1453Z" fill="white"/>
<path d="M139.659 33.9624V0H142.997V33.4901C142.997 35.7978 144.025 37.3947 146.207 37.3947C147.682 37.3947 148.966 36.7447 149.672 36.0339L150.957 38.4001C149.738 39.4662 148.262 40.1747 145.694 40.1747C141.647 40.1747 139.659 37.867 139.659 33.9624Z" fill="white"/>
<path d="M152.173 33.9624V0H155.511V33.4901C155.511 35.7978 156.538 37.3947 158.72 37.3947C160.196 37.3947 161.48 36.7447 162.186 36.0339L163.47 38.4001C162.251 39.4662 160.776 40.1747 158.207 40.1747C154.161 40.1747 152.173 37.867 152.173 33.9624Z" fill="white"/>
<path d="M162.953 25.1453C162.953 16.8031 168.729 10.1748 177.777 10.1748C186.954 10.1748 192.73 16.8009 192.73 25.1453C192.73 33.4874 186.954 40.1742 177.777 40.1742C168.729 40.1742 162.953 33.4897 162.953 25.1453ZM189.138 25.1453C189.138 18.8139 185.094 12.957 177.777 12.957C170.589 12.957 166.482 18.8139 166.482 25.1453C166.482 31.5352 170.589 37.3942 177.777 37.3942C185.094 37.3942 189.138 31.5374 189.138 25.1453Z" fill="white"/>
<path d="M22.0561 16.541C20.2455 16.541 19.3886 17.5486 19.085 21.2238H24.5235V20.8707C24.474 18.707 24.2715 16.541 22.0561 16.541Z" fill="url(#paint2_linear_3_9797)"/>
<path d="M22.7526 2.54199H0V25.2946C0 36.7294 9.27107 46.0004 20.7058 46.0004H43.4562V23.2478C43.4584 11.8108 34.1874 2.54199 22.7526 2.54199ZM35.2962 27.3661H19.1854C19.741 30.6386 21.4526 31.0412 24.1201 31.0412C25.8834 31.0412 27.694 30.2855 30.0107 28.6751L34.5427 34.7164C31.8235 36.8801 27.9459 38.8458 23.0135 38.8458C12.5931 38.8458 7.90808 32.5504 7.90808 24.2442C7.90808 16.4913 12.4402 9.69435 21.8552 9.69435C29.9589 9.69435 35.5481 14.7797 35.5481 23.9923C35.5504 24.8492 35.4491 26.309 35.2962 27.3661Z" fill="url(#paint3_linear_3_9797)"/>
<defs>
<linearGradient id="paint0_linear_3_9797" x1="47.3699" y1="25.176" x2="79.7156" y2="25.176" gradientUnits="userSpaceOnUse">
<stop stop-color="#1E7CE2"/>
<stop offset="1" stop-color="#9254F8"/>
</linearGradient>
<linearGradient id="paint1_linear_3_9797" x1="75.6747" y1="25.1768" x2="104.362" y2="25.1768" gradientUnits="userSpaceOnUse">
<stop stop-color="#1E7CE2"/>
<stop offset="1" stop-color="#9254F8"/>
</linearGradient>
<linearGradient id="paint2_linear_3_9797" x1="19.0854" y1="18.8824" x2="24.5237" y2="18.8824" gradientUnits="userSpaceOnUse">
<stop stop-color="#1E7CE2"/>
<stop offset="1" stop-color="#9254F8"/>
</linearGradient>
<linearGradient id="paint3_linear_3_9797" x1="0" y1="24.2698" x2="43.4577" y2="24.2698" gradientUnits="userSpaceOnUse">
<stop stop-color="#1E7CE2"/>
<stop offset="1" stop-color="#9254F8"/>
</linearGradient>
</defs>
</svg>
